<svg width="128" height="128" viewBox="0 0 112 64" fill="none" xmlns="http://www.w3.org/2000/svg">
<path d="M110.005 29.4776C107.382 26.9427 105.073 25.2863 103.906 24.3953C102.613 23.4039 92.2853 16.6024 92.2853 16.6024C88.8845 10.0016 87.6045 8.44549 79.5104 4.74353C50.2336 -8.65882 45.603 11.0306 32.6398 7.27843C33.1292 8.75922 36.8187 11.5702 36.8187 11.5702C30.6696 17.6063 20.5677 16.3765 20.5677 16.3765C20.5677 16.3765 22.1991 19.3631 24.8218 21.0071C19.8398 20.7059 13.5528 18.5475 13.5528 18.5475C13.5528 18.5475 17.4681 25.2235 21.5214 27.4573C15.5732 34.4722 8.83434 35.589 1.24219 35.2627C10.0265 41.6377 21.9983 42.3027 21.9983 42.3027C21.7598 53.2957 34.7606 60.3231 34.7606 60.3231C34.7606 60.3231 32.4516 54.011 32.8532 50.7357C38.0861 61.4651 48.9536 63.1467 48.9536 63.1467C47.7614 60.7498 47.4351 60.0345 46.7575 57.9137C49.0539 59.8714 53.5841 61.7412 53.5841 61.7412C52.7308 59.1937 50.8987 55.6675 50.4218 49.418C51.9402 57.2235 63.6234 61.0761 63.6234 61.0761C61.3269 57.3741 60.9002 56.7969 60.072 55.0651L61.7787 56.2824C61.7787 56.2824 59.6202 48.9286 60.3606 45.051C64.1755 41.7506 65.1794 39.5671 68.1661 38.4126C75.7332 35.5012 79.6736 40.4957 81.5685 42.1898C85.3708 45.6031 88.9849 45.8918 92.9253 45.9796C93.9167 46.6071 94.8328 47.1969 95.7363 46.7326C96.163 46.5192 96.4767 46.1177 96.5896 45.6533C97.7441 40.6965 95.6108 38.1239 93.2265 37.3835C90.039 36.3796 88.3324 34.6478 86.6634 32.1506C90.6414 34.0831 97.9073 38.0988 102.387 37.8855C105.324 37.7475 109.214 35.5012 110.368 33.9326C111.485 32.4267 111.322 30.7451 110.005 29.4776Z" fill="white"/>
<path d="M63.2215 56.3577V56.0439H64.8153V56.3577H64.2004V57.9137H63.8239V56.3577H63.209H63.2215ZM65.6686 56.0439L66.1455 57.3867L66.6223 56.0439H67.1494V57.9137H66.8106V56.4078L66.296 57.9137H65.9949L65.4678 56.4078V57.9137H65.129V56.0439H65.6686Z" fill="white"/>
<path d="M78.5573 14.6949C79.9126 13.6282 82.8993 13.3522 82.8993 13.3522C82.8993 13.3522 82.7613 12.6996 82.1464 11.7835C84.4679 12.4486 86.664 14.971 87.8938 17.6063C87.3918 17.6063 85.6099 16.3765 83.3134 16.6776C82.6734 15.8871 79.9252 14.4565 78.5573 14.6949ZM106.818 35.1624C106.818 35.1624 104.76 36.4549 102.325 36.5678C96.4899 36.8565 87.5424 29.2392 82.1715 29.5278C85.9236 31.3098 86.3377 36.6808 92.8005 38.7137C96.3142 39.818 95.4358 44.3859 95.2224 45.3271C95.1848 45.4651 95.0467 45.5404 94.9087 45.4902C94.1934 45.189 93.5283 44.7122 92.926 44.1976C92.7879 44.5114 92.4742 44.7373 92.0852 44.7247C87.7934 44.5992 84.2169 43.4949 79.875 39.0525C78.0428 37.1827 72.8726 35.0996 67.6648 37.1074C64.1762 38.4502 63.2099 40.822 59.0562 44.3231C58.3785 48.3263 59.5205 52.9318 59.5205 52.9318C59.5205 52.9318 58.4036 52.1286 57.0609 50.7231C57.8515 54.4376 60.0099 57.9137 60.0099 57.9137C53.886 55.1655 51.7903 50.8988 51.4013 46.8957C57.5628 43.1686 59.2068 39.8055 63.4483 37.1702C61.566 36.2416 57.7385 37.0824 57.7385 37.0824C65.406 31.2094 75.533 32.9663 81.5691 37.6847C84.1918 39.7302 85.5848 42.629 90.3911 43.1937C86.7142 42.0267 87.053 38.4753 79.9754 34.9741C74.5918 32.3137 72.5464 29.8792 73.086 27.909C72.4083 27.8588 71.8687 27.8965 71.8687 27.8965C71.8687 27.8965 73.3495 25.5498 77.3275 25.4369C78.733 25.3992 80.3895 25.5498 81.8954 26.0643C89.1864 28.5239 100.129 36.4173 104.182 32.9537C103.053 30.6071 104.27 28.4235 104.27 28.4235C104.132 27.8839 103.04 26.4157 101.748 24.4957C104.295 26.1396 105.814 27.269 109.077 30.4439C110.846 32.1506 108.487 34.4596 106.793 35.1875M76.5871 28.4361L77.0766 27.1686C77.0766 27.1686 77.0515 27.0431 76.9887 27.0431L75.6209 27.1059C75.6209 27.1059 75.5456 27.1435 75.533 27.1812C75.4954 27.3945 75.4703 28.0722 76.4617 28.4988C76.5118 28.5239 76.562 28.4988 76.5871 28.4486M79.5738 31.0337L80.3644 29.578C80.3644 29.578 80.3895 29.4525 80.3393 29.4024L79.7871 28.8L79.5236 27.771C79.4985 27.6831 79.4107 27.6329 79.3228 27.6706L76.926 28.6243C76.8005 28.6745 76.7377 28.8125 76.7754 28.938C76.926 29.3396 77.4781 29.4149 77.8922 29.7663C78.3817 30.1929 78.3189 30.9333 79.2977 31.1592C79.4107 31.1843 79.5236 31.1341 79.5738 31.0337ZM81.5566 32.9788L81.4813 30.9333C81.4813 30.8706 81.406 30.8204 81.3432 30.8455L79.7244 31.3976C79.7244 31.3976 79.6491 31.4604 79.6617 31.5106C79.7118 31.8745 80.402 32.6651 81.4185 33.0918C81.4813 33.1169 81.5566 33.0667 81.5566 32.9914M90.642 41.0604C90.6671 41.7882 91.2067 42.1145 91.5958 42.2651C91.7338 42.3153 91.8718 42.3153 92.0099 42.2902C92.0099 42.4784 92.0475 42.6667 92.1981 42.7671C92.5244 42.9929 93.0766 42.8925 93.5911 42.4533C93.6287 42.4157 93.6036 42.3529 93.5534 42.3529C93.0891 42.3278 92.7879 42.3153 92.424 42.0518C93.0389 41.4369 93.064 40.5082 93.0389 40.1192C93.0389 40.0439 92.9385 39.9937 92.8758 40.0439C92.5997 40.2573 91.922 40.709 90.7173 40.96C90.6671 40.96 90.6295 41.0102 90.642 41.0604ZM82.184 33.7443C82.3973 34.0706 82.9495 34.5976 83.6146 34.9365C83.715 34.9867 83.8405 34.9114 83.8405 34.7859L83.715 33.4682C83.715 33.3804 83.6271 33.3176 83.5393 33.3302L82.2844 33.5059C82.1715 33.5184 82.1213 33.6439 82.1715 33.7318M44.4617 53.5216C44.7126 57.6 46.4318 61.0384 46.4318 61.0384C38.664 58.4282 34.5103 51.702 32.4146 46.6447C31.2977 49.4933 30.8962 52.8314 32.0758 56.571C16.8287 45.0259 26.4664 30.4063 26.4664 30.4063C23.2162 33.0918 21.6852 36.5553 20.9699 40.4078C17.0295 40.1694 12.4867 39.0776 7.3291 36.6306C7.3291 36.6306 16.5903 36.5176 23.5801 27.131C21.1707 25.7631 18.9244 23.7929 16.9918 21.0573C31.8248 25.3616 38.9401 18.5976 38.9401 18.5976C38.9401 18.5976 40.6844 13.942 46.4569 10.7922C39.693 12.5741 38.9903 19.3129 27.5581 21.0322C25.8389 20.1914 24.4083 19.1624 23.4546 17.92C31.5487 18.1835 34.9495 14.3184 39.3668 11.5953C38.3126 11.0682 37.2836 10.3153 36.3299 9.28627C43.7589 10.378 47.0969 1.3302 58.893 3.94039C58.1275 3.27529 57.0734 2.79843 55.9064 2.48471C65.2303 0.326275 76.2734 5.00706 80.402 6.81412C87.8311 10.0643 88.3832 14.4565 91.1064 17.7318C86.2373 16.1004 89.1362 11.2816 76.1354 7.55451C76.9762 8.16941 77.5283 8.89725 77.8797 9.5749C75.5205 9.98902 73.0734 11.5325 72.1071 13.7161C68.8695 12.9882 65.9832 13.9796 65.2052 14.7702C67.2005 14.582 68.9824 15.2722 70.1997 15.9373C55.8687 15.6235 55.2413 25.4369 66.962 30.2557C62.3817 29.6282 57.0232 29.7663 52.9071 31.7867C52.5056 33.6816 52.744 35.6518 53.5471 37.0071C52.4177 36.5427 51.5644 35.9153 50.9118 35.2376C48.8036 41.6125 47.6868 50.0329 51.0122 59.018C48.2013 57.6627 46.0428 55.7804 44.4491 53.5467M45.5534 16.4894C45.5534 16.4894 49.7448 12.0596 55.2915 11.6078C46.733 18.7482 47.7997 32.3639 47.7997 32.3639C47.9628 26.7545 52.0664 14.4565 61.9299 9.03529C61.9299 9.03529 60.3487 8.52078 58.0397 8.89725C59.7715 7.61726 63.9503 6.81412 66.2342 7.39137C57.2993 2.96157 49.933 9.08549 49.933 9.08549C49.933 9.08549 53.1707 7.59216 56.3205 8.16941C56.3205 8.16941 49.5691 8.73412 45.5534 16.4894ZM46.733 18.7482C39.3542 23.9937 35.5644 36.3294 41.2617 50.309C37.2711 30.6824 46.733 18.7482 46.733 18.7482Z" fill="#73253E"/>
</svg>
